<svg id="Capa_1" enable-background="new 0 0 512 512" height="512" viewBox="0 0 512 512" width="512" xmlns="http://www.w3.org/2000/svg"><g><circle cx="256" cy="324.013" fill="#ffaf40" r="187.987"/><path d="m129.57 442.052c6.472-5.185 7.493-14.615 2.38-21.144-20.932-26.737-33.425-60.384-33.425-96.898 0-48.578 22.115-92.088 56.804-120.998 5.341-4.451 7.034-11.92 4.048-18.198-.047-.099-.094-.198-.142-.298-4.262-8.957-15.812-11.391-23.436-5.044-41.42 34.482-67.786 86.429-67.786 144.538 0 43.681 14.905 83.875 39.898 115.791 5.205 6.647 14.832 7.723 21.42 2.443.08-.064.16-.128.239-.192z" fill="#ffc751"/><path d="m104.873 212.211c-3.163 4.27-6.15 8.678-8.949 13.215-4.62 7.487-1.849 17.332 5.968 21.371 7.124 3.681 15.936 1.337 20.16-5.48 2.277-3.674 4.7-7.248 7.262-10.713 4.76-6.44 3.692-15.477-2.343-20.74-6.647-5.795-16.85-4.738-22.098 2.347z" fill="#ffe059"/><path d="m443.986 324.01c0 103.823-84.163 187.986-187.986 187.986-47.121 0-90.194-17.341-123.188-45.992 24.806 12.286 52.756 19.182 82.302 19.182 102.623 0 185.81-83.187 185.81-185.81 0-62.072-30.441-117.045-77.216-150.781 70.37 27.166 120.278 95.462 120.278 175.415z" fill="#ff993a"/><g><g><path d="m234.418 137.254c-8.503.966-16.822 2.502-24.929 4.567.742 5.574-1.129 17.921-11.137 37.917-11.951 23.861-31.173 50.193-51.434 70.453-18.134 18.145-35.242 29.343-49.45 32.394-9.438 2.024-17.239.458-23.728-4.78-2.197 8.665-3.783 17.585-4.729 26.688 5.787 2.614 12.795 4.455 21.033 4.455 18.623 0 43.521-9.438 74.857-40.775 22.081-22.081 43.083-50.884 56.183-77.043 11.055-22.092 15.52-40.318 13.334-53.876z" fill="#fff370"/></g><g><path d="m234.418 137.254c-8.503.966-16.822 2.502-24.929 4.567.742 5.574-1.129 17.921-11.137 37.917-11.951 23.861-31.173 50.193-51.434 70.453-18.134 18.145-35.242 29.343-49.45 32.394-9.438 2.024-17.239.458-23.728-4.78-2.197 8.665-3.783 17.585-4.729 26.688 5.787 2.614 12.795 4.455 21.033 4.455 18.623 0 43.521-9.438 74.857-40.775 22.081-22.081 43.083-50.884 56.183-77.043 11.055-22.092 15.52-40.318 13.334-53.876z" fill="#fff370"/></g><g><path d="m138.229 258.42c-1.274 1.138-2.541 2.239-3.801 3.302-4.331 3.657-5.668 9.753-3.29 14.899.036.078.073.157.109.235 3.479 7.53 13.189 9.732 19.521 4.374 1.488-1.259 2.993-2.57 4.515-3.934 5.371-4.815 5.571-13.17.47-18.271l-.168-.168c-4.744-4.744-12.351-4.906-17.356-.437z" fill="#fff7c7"/></g><g><path d="m289.238 138.953c-10.791-1.922-21.898-2.929-33.238-2.929s-22.447 1.007-33.238 2.929c-26.108 28.132-41.202 85.923-41.202 130.806 0 31.57 7.12 56.102 21.165 72.924 12.988 15.561 31.407 23.82 53.274 23.932 21.867-.112 40.286-8.371 53.274-23.932 14.046-16.822 21.165-41.354 21.165-72.924.002-44.884-15.092-102.674-41.2-130.806zm-33.238 202.245c-22.467-.163-49.013-12.775-49.013-71.439 0-59.468 28.061-120.015 49.013-124.551 20.952 4.536 49.013 65.083 49.013 124.551 0 58.665-26.546 71.277-49.013 71.439z" fill="#fff370"/><path d="m200.584 300.673c5.003-2.232 7.989-7.438 7.365-12.882-.626-5.462-.962-11.456-.962-18.032 0-27.45 5.98-55.129 14.479-77.424 2.128-5.582.064-11.899-4.985-15.092-.184-.116-.368-.233-.552-.35-6.717-4.254-15.688-1.34-18.489 6.101-10.278 27.297-15.879 59.426-15.879 86.765 0 7.408.395 14.426 1.18 21.048.997 8.409 9.875 13.424 17.608 9.972.077-.036.156-.071.235-.106z" fill="#fff7c7"/><g><path d="m438.26 277.804c-6.489 5.238-14.29 6.804-23.728 4.78-14.209-3.051-31.316-14.249-49.45-32.394-20.26-20.26-39.483-46.592-51.434-70.453-10.008-19.996-11.879-32.343-11.137-37.917-8.106-2.065-16.426-3.6-24.929-4.567-2.187 13.558 2.278 31.784 13.334 53.874 13.1 26.159 34.103 54.963 56.183 77.043 31.336 31.336 56.234 40.775 74.857 40.775 8.238 0 15.246-1.841 21.033-4.455-.946-9.101-2.532-18.02-4.729-26.686z" fill="#fff370"/></g><g><path d="m386.41 268.658c-.605-.439-1.213-.887-1.822-1.345-5.198-3.903-12.513-3.167-16.883 1.644-.057.063-.114.126-.171.188-4.993 5.497-4.135 14.091 1.797 18.559.755.569 1.506 1.124 2.252 1.666 6.919 5.028 16.736 1.83 19.39-6.301.028-.085.056-.171.084-.256 1.703-5.226-.197-10.927-4.647-14.155z" fill="#fff7c7"/></g><g><path d="m352.165 253.026c4.217-4.747 4.241-11.862.075-16.655-15.335-17.645-29.208-37.896-38.593-56.633-.598-1.194-1.165-2.36-1.705-3.498-2.977-6.282-10.52-8.902-16.787-5.895-.077.037-.153.074-.23.11-6.241 2.994-8.901 10.46-5.938 16.716.618 1.305 1.26 2.624 1.928 3.958 10.294 20.556 25.468 42.742 42.21 62.018 4.961 5.711 13.836 5.738 18.859.081.062-.068.121-.135.181-.202z" fill="#fff7c7"/></g></g></g><path d="m256 93.356c-50.69 0-95.957-32.146-112.641-79.99-1.828-5.243.94-10.975 6.183-12.803 5.241-1.829 10.975.94 12.803 6.183 13.871 39.778 51.508 66.504 93.655 66.504z" fill="#02718c"/><path d="m159.27 25.608c-.061.04-.122.08-.182.121-4.564 3.021-5.84 9.173-2.833 13.747 6.111 9.295 13.455 17.62 21.761 24.788 4.69 4.047 11.883 2.894 15.06-2.424.034-.058.069-.115.103-.173 2.463-4.122 1.632-9.431-2.003-12.569-6.892-5.948-12.985-12.857-18.059-20.569-3.045-4.63-9.225-5.979-13.847-2.921z" fill="#0d8ba0"/><path d="m291.415 146.024h-70.831v-87.056c0-8.328 6.751-15.08 15.08-15.08h40.671c8.328 0 15.08 6.751 15.08 15.08z" fill="#8f8b81"/><path d="m247.301 83.724v-10.155c0-7.378-5.981-13.358-13.358-13.358-7.378 0-13.358 5.981-13.358 13.358v10.155c0 7.378 5.981 13.358 13.358 13.358 7.377 0 13.358-5.98 13.358-13.358z" fill="#b5b1a4"/><path d="m291.417 58.973v87.051h-70.835v-29.205c29.305-2.001 52.468-26.4 52.468-56.217 0-5.821-.885-11.431-2.523-16.709h5.811c8.324 0 15.079 6.746 15.079 15.08z" fill="#706c64"/><path d="m318.648 150.014h-125.296c-3.267 0-5.666-3.068-4.878-6.239l6.608-26.595c1.114-4.482 5.138-7.629 9.757-7.629h102.325c4.619 0 8.643 3.147 9.757 7.629l6.608 26.595c.786 3.172-1.613 6.239-4.881 6.239z" fill="#d8d4c9"/><path d="m262.463 109.552h-32.765c-8.052 0-14.58 6.528-14.58 14.58 0 8.052 6.528 14.58 14.58 14.58h32.765c8.052 0 14.58-6.528 14.58-14.58 0-8.052-6.528-14.58-14.58-14.58z" fill="#e8e4d8"/><g><path d="m265.099 72.833c38.256-3.519 71.465-29.021 84.424-65.709 1.843-5.218 7.418-8.332 12.688-6.643 5.402 1.732 8.286 7.561 6.43 12.885-15.458 44.329-55.453 75.182-101.565 79.476-5.931.553-11.076-4.05-11.076-10.007 0-5.183 3.938-9.528 9.099-10.002z" fill="#12adb5"/></g><g><path d="m321.139 48.81c-7.773 6.771-16.57 12.318-26.077 16.402-4.298 1.847-6.763 6.4-5.808 10.98.032.153.064.306.096.459 1.263 6.061 7.759 9.538 13.452 7.104 11.511-4.921 22.163-11.619 31.566-19.808 4.375-3.811 4.515-10.595.295-14.577-.087-.082-.174-.164-.261-.247-3.697-3.493-9.429-3.653-13.263-.313z" fill="#3cd3d3"/></g><path id="XMLID_51_" d="m318.651 150.014h-46.597c14.688-4.152 25.445-17.653 25.445-33.658 0-2.332-.231-4.604-.664-6.806h10.325c4.624 0 8.646 3.147 9.762 7.63l6.605 26.591c.784 3.177-1.608 6.243-4.876 6.243z" fill="#b5b1a4"/><path d="m442.989 304.492c-5.787 2.614-12.795 4.455-21.033 4.455-6.316 0-13.354-1.088-21.125-3.753.061-1.933.091-3.875.091-5.818 0-7.598-.458-15.083-1.353-22.437 5.258 2.746 10.262 4.638 14.961 5.645 9.438 2.024 17.239.458 23.728-4.78 2.199 8.666 3.785 17.585 4.731 26.688z" fill="#ffe059"/><g fill="#fff370"><circle cx="159.226" cy="317.257" r="10.191"/><circle cx="178.132" cy="354.118" r="10.191"/><circle cx="210.819" cy="381.299" r="10.191"/><circle cx="256" cy="396.401" r="10.191"/></g><g fill="#fff370"><circle cx="352.774" cy="317.257" r="10.191"/><circle cx="333.868" cy="354.118" r="10.191"/><circle cx="301.181" cy="381.299" r="10.191"/></g><g><g><circle cx="387.861" cy="334.197" fill="#fff370" r="10.191"/><circle cx="424.763" cy="340.86" fill="#ffe059" r="10.191"/></g><g><circle cx="124.139" cy="334.197" fill="#fff370" r="10.191"/><circle cx="87.237" cy="340.86" fill="#fff7c7" r="10.191"/></g></g><path d="m104.659 280.438c-2.583 8.95-4.394 18.236-5.34 27.756-3.244.519-6.336.753-9.276.753-8.238 0-15.246-1.841-21.033-4.455.946-9.103 2.533-18.023 4.729-26.688 6.489 5.238 14.29 6.804 23.728 4.78 2.32-.498 4.721-1.21 7.192-2.146z" fill="#fff7c7"/></g></svg>